<svg
                    width="69"
                    height="70"
                    viewBox="10 0 65 70"
                    xmlns="http://www.w3.org/2000/svg"
                  >
                    <path
                      fill-rule="evenodd"
                      clip-rule="evenodd"
                      d="M12.9375 17.5C12.9375 15.0837 14.8683 13.125 17.25 13.125H25.875C28.2567 13.125 30.1875 15.0837 30.1875 17.5V20.4167H38.8125V17.5C38.8125 15.0837 40.7433 13.125 43.125 13.125H51.75C54.1316 13.125 56.0625 15.0837 56.0625 17.5V26.25C56.0625 28.6663 54.1316 30.625 51.75 30.625H48.875V39.375H51.75C54.1316 39.375 56.0625 41.3338 56.0625 43.75V52.5C56.0625 54.9162 54.1316 56.875 51.75 56.875H43.125C40.7433 56.875 38.8125 54.9162 38.8125 52.5V49.5833H30.1875V52.5C30.1875 54.9162 28.2567 56.875 25.875 56.875H17.25C14.8683 56.875 12.9375 54.9162 12.9375 52.5V43.75C12.9375 41.3338 14.8683 39.375 17.25 39.375H20.125V30.625H17.25C14.8683 30.625 12.9375 28.6663 12.9375 26.25V17.5ZM46 30.625H43.125C40.7433 30.625 38.8125 28.6663 38.8125 26.25V23.3333H30.1875V26.25C30.1875 28.6663 28.2567 30.625 25.875 30.625H23V39.375H25.875C28.2567 39.375 30.1875 41.3338 30.1875 43.75V46.6667H38.8125V43.75C38.8125 41.3338 40.7433 39.375 43.125 39.375H46V30.625ZM17.25 16.0417C16.4561 16.0417 15.8125 16.6946 15.8125 17.5V26.25C15.8125 27.0554 16.4561 27.7083 17.25 27.7083H25.875C26.6689 27.7083 27.3125 27.0554 27.3125 26.25V17.5C27.3125 16.6946 26.6689 16.0417 25.875 16.0417H17.25ZM15.8125 43.75C15.8125 42.9447 16.4561 42.2917 17.25 42.2917H25.875C26.6689 42.2917 27.3125 42.9447 27.3125 43.75V52.5C27.3125 53.3053 26.6689 53.9583 25.875 53.9583H17.25C16.4561 53.9583 15.8125 53.3053 15.8125 52.5V43.75ZM41.6875 43.75C41.6875 42.9447 42.3312 42.2917 43.125 42.2917H51.75C52.5438 42.2917 53.1875 42.9447 53.1875 43.75V52.5C53.1875 53.3053 52.5438 53.9583 51.75 53.9583H43.125C42.3312 53.9583 41.6875 53.3053 41.6875 52.5V43.75ZM41.6875 17.5C41.6875 16.6946 42.3312 16.0417 43.125 16.0417H51.75C52.5438 16.0417 53.1875 16.6946 53.1875 17.5V26.25C53.1875 27.0554 52.5438 27.7083 51.75 27.7083H43.125C42.3312 27.7083 41.6875 27.0554 41.6875 26.25V17.5Z"
                    />
                  </svg>