 <svg
                    xmlns="http://www.w3.org/2000/svg"
                    width="70"
                    height="69"
                    viewBox="10 0 65 70"
                  >
                    <path
                      fill-rule="evenodd"
                      clip-rule="evenodd"
                      d="M45.625 10C43.2088 10 41.25 11.9308 41.25 14.3125C41.25 16.1902 42.4674 17.7876 44.1667 18.3796V21.5H19.375C16.9587 21.5 15 23.4308 15 25.8125V43.0625C15 45.4441 16.9587 47.375 19.375 47.375H23.75V50.4955C22.0508 51.0875 20.8333 52.6848 20.8333 54.5625C20.8333 56.9441 22.7921 58.875 25.2083 58.875C27.6246 58.875 29.5833 56.9441 29.5833 54.5625C29.5833 52.6848 28.3659 51.0875 26.6667 50.4955V47.375H48.5417C50.9578 47.375 52.9167 45.4441 52.9167 43.0625V38.5045C54.6159 37.9125 55.8333 36.3152 55.8333 34.4375C55.8333 32.5598 54.6159 30.9625 52.9167 30.3705V25.8125C52.9167 23.4308 50.9578 21.5 48.5417 21.5H47.0833V18.3796C48.7826 17.7876 50 16.1902 50 14.3125C50 11.9308 48.0412 10 45.625 10ZM44.1667 14.3125C44.1667 13.5186 44.8197 12.875 45.625 12.875C46.4303 12.875 47.0833 13.5186 47.0833 14.3125C47.0833 15.1064 46.4303 15.75 45.625 15.75C44.8197 15.75 44.1667 15.1064 44.1667 14.3125ZM50 30.125V25.8125C50 25.0186 49.347 24.375 48.5417 24.375H19.375C18.5696 24.375 17.9167 25.0186 17.9167 25.8125V43.0625C17.9167 43.8563 18.5696 44.5 19.375 44.5H48.5417C49.347 44.5 50 43.8563 50 43.0625V38.75H39.7917C37.3755 38.75 35.4167 36.8191 35.4167 34.4375C35.4167 32.0559 37.3755 30.125 39.7917 30.125H50ZM25.2083 53.125C24.4029 53.125 23.75 53.7687 23.75 54.5625C23.75 55.3563 24.4029 56 25.2083 56C26.0137 56 26.6667 55.3563 26.6667 54.5625C26.6667 53.7687 26.0137 53.125 25.2083 53.125ZM38.3333 34.4375C38.3333 33.6437 38.9864 33 39.7917 33H51.4583C52.2636 33 52.9167 33.6437 52.9167 34.4375C52.9167 35.2313 52.2636 35.875 51.4583 35.875H39.7917C38.9864 35.875 38.3333 35.2313 38.3333 34.4375Z"
                    />
                  </svg>
