 <svg
                    width="69"
                    height="69"
                    viewBox="10 0 65 70"
                    xmlns="http://www.w3.org/2000/svg"
                  >
                    <path
                      fill-rule="evenodd"
                      clip-rule="evenodd"
                      d="M44.5375 49.7562C44.5539 49.8433 44.5625 49.933 44.5625 50.025V54.625C44.5625 58.5945 41.3445 61.8125 37.375 61.8125H20.125C16.1555 61.8125 12.9375 58.5945 12.9375 54.625V14.375C12.9375 10.4055 16.1555 7.1875 20.125 7.1875H37.375C41.3445 7.1875 44.5625 10.4055 44.5625 14.375V18.975C44.5625 19.0395 44.5582 19.103 44.5501 19.1653L58.0577 24.8528C58.5908 25.0772 58.9375 25.5993 58.9375 26.1776V41.3092C58.9375 41.843 58.6419 42.3326 58.1696 42.5813L44.5375 49.7562ZM37.375 10.0625C39.7566 10.0625 41.6875 11.9933 41.6875 14.375V18.975C41.6875 19.0395 41.6918 19.103 41.6999 19.1653L28.1922 24.8528C27.6591 25.0772 27.3125 25.5993 27.3125 26.1776V41.3092C27.3125 41.843 27.6082 42.3326 28.0805 42.5813L41.7125 49.7562C41.6961 49.8433 41.6875 49.933 41.6875 50.025V54.625C41.6875 57.0066 39.7566 58.9375 37.375 58.9375H20.125C17.7433 58.9375 15.8125 57.0066 15.8125 54.625V14.375C15.8125 11.9933 17.7433 10.0625 20.125 10.0625H37.375ZM41.6875 33.6591L30.1875 28.4133V40.4415L41.6875 46.4939V33.6591ZM56.0625 40.4415L44.5625 46.4939V33.6591L56.0625 28.4133V40.4415ZM53.9206 26.2303L43.125 31.1546L32.3294 26.2303L43.125 21.6847L53.9206 26.2303Z"
                    />
                    </svg>