<svg
                    width="68"
                    height="69"
                    viewBox="10 0 65 70"
                    xmlns="http://www.w3.org/2000/svg"
                  >
                    <path
                      fill-rule="evenodd"
                      clip-rule="evenodd"
                      d="M24.0833 23C24.0833 22.2061 24.7176 21.5625 25.5 21.5625H46.5755C51.1839 21.5625 54.5652 25.9569 53.4474 30.4931L50.6141 41.9931C49.8259 45.193 46.9925 47.4375 43.7421 47.4375H19.8333C19.0509 47.4375 18.4167 46.7938 18.4167 46C18.4167 45.2062 19.0509 44.5625 19.8333 44.5625H43.7421C45.6923 44.5625 47.3923 43.2159 47.8655 41.2959L50.6988 29.7959C51.3692 27.0741 49.3405 24.4375 46.5755 24.4375H25.5C24.7176 24.4375 24.0833 23.7939 24.0833 23Z"
                    />
                    <path
                      fill-rule="evenodd"
                      clip-rule="evenodd"
                      d="M15.5833 34.5C15.5833 33.7062 16.2176 33.0625 17 33.0625H28.3333C29.1156 33.0625 29.75 33.7062 29.75 34.5C29.75 35.2938 29.1156 35.9375 28.3333 35.9375H17C16.2176 35.9375 15.5833 35.2938 15.5833 34.5Z"
                      fill="#0DCAD4"
                    />
                  </svg>