 <svg
                    width="69"
                    height="70"
                    viewBox="10 0 65 70"
                    xmlns="http://www.w3.org/2000/svg"
                  >
                    <path
                      fill-rule="evenodd"
                      clip-rule="evenodd"
                      d="M15.8193 23.2836C16.158 40.8829 29.1476 49.021 34.6081 52.3259C37.8913 50.8142 42.3735 47.4597 46.1239 42.5772C49.9893 37.5442 53.0052 30.9823 53.1794 23.2827C50.7343 21.4204 44.3167 17.5 34.5 17.5C24.6818 17.5 18.2636 21.4217 15.8193 23.2836ZM13.4637 21.4512C15.7368 19.5609 23.0082 14.5833 34.5 14.5833C45.9919 14.5833 53.2631 19.5609 55.5364 21.4512C55.8693 21.7282 56.0625 22.1421 56.0625 22.579C56.0625 31.3714 52.6746 38.7937 48.3917 44.3698C44.1272 49.922 38.899 53.744 35.0339 55.3123C34.6176 55.4814 34.1472 55.4435 33.7626 55.2102C33.6309 55.1303 33.492 55.0465 33.3457 54.9582C27.9487 51.702 12.9375 42.6452 12.9375 22.579C12.9375 22.1421 13.1306 21.7282 13.4637 21.4512Z"
                    />
                    <path
                      fill-rule="evenodd"
                      clip-rule="evenodd"
                      d="M42.7041 26.6771C43.2653 27.2467 43.2653 28.17 42.7041 28.7395L34.0791 37.4897C33.5176 38.059 32.6074 38.059 32.0459 37.4897L27.7335 33.1147C27.1721 32.545 27.1721 31.6216 27.7335 31.052C28.2949 30.4827 29.2051 30.4827 29.7666 31.052L33.0625 34.396L40.6709 26.6771C41.2324 26.1076 42.1426 26.1076 42.7041 26.6771Z"
                      fill="#0DCAD4"
                    />
                    </svg>