<svg
                    width="69"
                    height="70"
                    viewBox="10 0 65 70"
                    xmlns="http://www.w3.org/2000/svg"
                  >
                    <path
                      fill-rule="evenodd"
                      clip-rule="evenodd"
                      d="M15.8125 17.5C15.8125 13.4729 19.0305 10.2083 23 10.2083H34.5C48.0772 10.2083 58.9375 22.0454 58.9375 36.4583C58.9375 41.8714 57.4109 46.9108 54.7874 51.098C53.2841 53.4978 52.229 56.0082 52.229 58.5734V61.25C52.229 62.0553 51.5855 62.7083 50.7915 62.7083C49.9977 62.7083 49.354 62.0553 49.354 61.25V58.5734C49.354 55.2087 50.7291 52.1383 52.3612 49.5335C54.6949 45.8086 56.0625 41.3108 56.0625 36.4583C56.0625 23.4871 46.3277 13.125 34.5 13.125H23C20.6183 13.125 18.6875 15.0837 18.6875 17.5V21.875C18.6875 22.0317 18.6626 22.1875 18.6138 22.3361L13.4944 37.9167H17.25C18.0439 37.9167 18.6875 38.5697 18.6875 39.375V51.0417C18.6875 51.847 19.3311 52.5 20.125 52.5H24.4375C25.2314 52.5 25.875 53.153 25.875 53.9583C25.875 54.7636 25.2314 55.4167 24.4375 55.4167H20.125C17.7433 55.4167 15.8125 53.4578 15.8125 51.0417V40.8333H11.5C11.0379 40.8333 10.604 40.6079 10.3338 40.2278C10.0637 39.8475 9.99016 39.3587 10.1363 38.9139L15.8125 21.6383V17.5Z"
                    />
                    <path
                      fill-rule="evenodd"
                      clip-rule="evenodd"
                      d="M21.5625 26.25C21.5625 22.2229 24.7805 18.9583 28.75 18.9583C32.7195 18.9583 35.9375 22.2229 35.9375 26.25C35.9375 27.9557 35.3602 29.5245 34.3931 30.7667L38.6728 35.1085C39.8972 34.1273 41.4437 33.5417 43.125 33.5417C47.0945 33.5417 50.3125 36.8063 50.3125 40.8333C50.3125 44.8604 47.0945 48.125 43.125 48.125C39.1555 48.125 35.9375 44.8604 35.9375 40.8333C35.9375 39.5698 36.2543 38.3813 36.8118 37.3453L32.1882 32.6547C31.167 33.2202 29.9955 33.5417 28.75 33.5417C24.7805 33.5417 21.5625 30.277 21.5625 26.25ZM28.75 21.875C26.3683 21.875 24.4375 23.8337 24.4375 26.25C24.4375 28.6662 26.3683 30.625 28.75 30.625C31.1317 30.625 33.0625 28.6662 33.0625 26.25C33.0625 23.8337 31.1317 21.875 28.75 21.875ZM43.125 36.4583C40.7433 36.4583 38.8125 38.4172 38.8125 40.8333C38.8125 43.2495 40.7433 45.2083 43.125 45.2083C45.5067 45.2083 47.4375 43.2495 47.4375 40.8333C47.4375 38.4172 45.5067 36.4583 43.125 36.4583Z"
                      fill="#0DCAD4"
                    />
                  </svg>