 <svg
                    width="68"
                    height="70"
                    viewBox="10 0 65 70"
                    xmlns="http://www.w3.org/2000/svg"
                  >
                    <path
                      fill-rule="evenodd"
                      clip-rule="evenodd"
                      d="M34 16.0417C30.088 16.0417 26.9167 19.3063 26.9167 23.3333C26.9167 24.872 27.3796 26.2993 28.17 27.4758L21.7499 36.7284C21.1403 36.5525 20.4975 36.4583 19.8333 36.4583C15.9213 36.4583 12.75 39.723 12.75 43.75C12.75 47.777 15.9213 51.0417 19.8333 51.0417C23.7453 51.0417 26.9167 47.777 26.9167 43.75C26.9167 41.4622 25.893 39.4202 24.2915 38.0835L30.2385 29.5129C31.3284 30.2175 32.6179 30.625 34 30.625C35.3818 30.625 36.6713 30.2175 37.7612 29.5132L43.7081 38.0838C42.1067 39.4205 41.0833 41.4622 41.0833 43.75C41.0833 47.777 44.2547 51.0417 48.1667 51.0417C52.0786 51.0417 55.25 47.777 55.25 43.75C55.25 39.723 52.0786 36.4583 48.1667 36.4583C47.5022 36.4583 46.8594 36.5525 46.2496 36.7284L39.8296 27.4763C40.6204 26.2998 41.0833 24.8722 41.0833 23.3333C41.0833 19.3063 37.912 16.0417 34 16.0417ZM29.75 23.3333C29.75 20.9171 31.6529 18.9583 34 18.9583C36.3471 18.9583 38.25 20.9171 38.25 23.3333C38.25 25.7496 36.3471 27.7083 34 27.7083C31.6529 27.7083 29.75 25.7496 29.75 23.3333ZM15.5833 43.75C15.5833 41.3338 17.4861 39.375 19.8333 39.375C22.1806 39.375 24.0833 41.3338 24.0833 43.75C24.0833 46.1662 22.1806 48.125 19.8333 48.125C17.4861 48.125 15.5833 46.1662 15.5833 43.75ZM48.1667 39.375C45.8195 39.375 43.9167 41.3338 43.9167 43.75C43.9167 46.1662 45.8195 48.125 48.1667 48.125C50.5138 48.125 52.4167 46.1662 52.4167 43.75C52.4167 41.3338 50.5138 39.375 48.1667 39.375Z"
                    />
                  </svg>