<svg
                    width="69"
                    height="68"
                    viewBox="10 0 65 70"
                    xmlns="http://www.w3.org/2000/svg"
                  >
                    <path
                      fill-rule="evenodd"
                      clip-rule="evenodd"
                      d="M33.896 17.635C34.2792 17.455 34.7208 17.455 35.104 17.635L49.479 24.3894C49.9873 24.6282 50.3125 25.1446 50.3125 25.7127V42.5988C50.3125 43.1191 50.0391 43.6001 49.5952 43.8608L35.2202 52.3037C34.7748 52.5653 34.2251 52.5653 33.7798 52.3037L19.4048 43.8608C18.9608 43.6001 18.6875 43.1191 18.6875 42.5988V25.7127C18.6875 25.1446 19.0127 24.6282 19.5209 24.3894L33.896 17.635ZM21.5625 28.0761L33.0625 33.9299V48.5123L21.5625 41.7579V28.0761ZM35.9375 48.5123L47.4375 41.7579V28.0761L35.9375 33.9299V48.5123ZM34.5 31.3985L45.5664 25.7653L34.5 20.5655L23.4336 25.7653L34.5 31.3985Z"
                    />
                    <path
                      fill-rule="evenodd"
                      clip-rule="evenodd"
                      d="M7.1875 8.75C7.1875 7.94459 7.8311 7.29167 8.625 7.29167H17.25C18.0439 7.29167 18.6875 7.94459 18.6875 8.75C18.6875 9.55541 18.0439 10.2083 17.25 10.2083H10.0625V17.5C10.0625 18.3054 9.4189 18.9583 8.625 18.9583C7.8311 18.9583 7.1875 18.3054 7.1875 17.5V8.75Z"
                      fill="#0DCAD4"
                    />
                    <path
                      fill-rule="evenodd"
                      clip-rule="evenodd"
                      d="M60.375 7.29167C61.1688 7.29167 61.8125 7.94459 61.8125 8.75V17.5C61.8125 18.3054 61.1688 18.9583 60.375 18.9583C59.5812 18.9583 58.9375 18.3054 58.9375 17.5V10.2083H51.75C50.9562 10.2083 50.3125 9.55541 50.3125 8.75C50.3125 7.94459 50.9562 7.29167 51.75 7.29167H60.375Z"
                      fill="#0DCAD4"
                    />
                    <path
                      fill-rule="evenodd"
                      clip-rule="evenodd"
                      d="M8.625 62.7083C7.8311 62.7083 7.1875 62.0553 7.1875 61.25V52.5C7.1875 51.6947 7.8311 51.0417 8.625 51.0417C9.4189 51.0417 10.0625 51.6947 10.0625 52.5V59.7917H17.25C18.0439 59.7917 18.6875 60.4447 18.6875 61.25C18.6875 62.0553 18.0439 62.7083 17.25 62.7083H8.625Z"
                      fill="#0DCAD4"
                    />
                    <path
                      fill-rule="evenodd"
                      clip-rule="evenodd"
                      d="M61.8125 61.25C61.8125 62.0553 61.1688 62.7083 60.375 62.7083H51.75C50.9562 62.7083 50.3125 62.0553 50.3125 61.25C50.3125 60.4447 50.9562 59.7917 51.75 59.7917H58.9375V52.5C58.9375 51.6947 59.5812 51.0417 60.375 51.0417C61.1688 51.0417 61.8125 51.6947 61.8125 52.5V61.25Z"
                      fill="#0DCAD4"
                    />
                  </svg>