<svg width="666" height="209" viewBox="0 0 666 209" fill="none" xmlns="http://www.w3.org/2000/svg">
<path fill-rule="evenodd" clip-rule="evenodd" d="M520.105 96.8519C536.496 91.4411 574.325 76.0665 583.455 47.1998C595.198 10.0671 586.587 3.31738 586.587 3.31738C586.587 3.31738 573.277 14.742 562.84 18.1187C553.017 22.1278 513.53 40.1727 512.441 93.2681L485.73 115.363C484.638 114.949 483.466 114.719 482.254 114.719C476.774 114.719 472.075 119.132 472.075 124.846C472.075 125.197 472.093 125.541 472.129 125.885L440.157 147.913C438.382 146.471 436.125 145.62 433.716 145.62C430.61 145.62 427.757 147.037 425.867 149.307L383.316 134.022C383.099 128.507 378.744 124.076 373.149 124.328C367.669 124.328 362.97 128.744 362.97 134.454C362.97 140.165 367.408 144.581 373.149 144.581C376.092 144.581 378.806 143.309 380.693 141.248L423.581 156.656C424.042 161.708 428.298 165.873 433.716 165.873C439.134 165.873 443.894 161.457 443.894 155.747C443.894 155.384 443.876 155.029 443.84 154.678L475.791 132.668C477.533 134.103 479.772 134.976 482.254 134.976C486.125 134.976 489.609 132.772 491.318 129.461L534.787 130.353C575.095 177.024 623.226 163.399 634.384 158.605C646.127 154.189 665.961 154.189 665.961 154.189C665.961 154.189 668.57 142.506 630.995 118.873C601.504 100.532 556.904 115.459 539.072 122.73L491.921 121.765C491.783 121.358 491.619 120.959 491.431 120.57L520.105 96.8556V96.8519Z" fill="#0DC8D4"/>
<path d="M71.3717 146.429C72.8547 146.79 73.967 147.331 74.5231 148.233C75.0793 149.134 75.2647 149.855 75.2647 150.757C75.2647 152.74 74.5231 154.363 73.0401 155.445C64.3272 160.313 55.0581 162.838 45.0476 162.838C35.037 162.838 27.8071 160.854 23.5434 156.887C19.2796 152.921 17.055 146.249 17.055 137.053V91.9759H5.00528C3.70761 91.9759 2.22457 91.6153 1.29766 90.7137C0.370756 89.8122 0 88.7303 0 87.1075C0 85.8454 0.370756 84.4029 1.29766 83.5013C2.22457 82.5998 3.33685 82.0589 5.00528 82.0589H17.2404V51.7668C17.2404 50.5046 17.7966 49.0622 18.9089 48.1606C20.0211 47.2591 21.5042 46.8984 22.9872 46.8984C24.4703 46.8984 25.9533 47.2591 27.0656 48.1606C28.1779 49.0622 28.734 50.144 28.734 51.7668V82.0589H65.2541C66.5518 82.0589 68.0348 82.5998 68.9617 83.5013C69.8886 84.4029 70.2594 85.6651 70.2594 87.1075C70.2594 88.55 69.8886 89.8122 68.9617 90.7137C68.0348 91.6153 66.9225 91.9759 65.2541 91.9759H28.734V137.053C28.734 142.823 30.0317 147.151 32.627 149.675C35.2224 152.199 39.8569 153.462 46.716 153.462C53.5751 153.462 60.4342 151.658 67.2933 147.692C68.5909 146.249 69.8886 146.069 71.3717 146.429Z" fill="#282A2C"/>
<path d="M98.2509 150.938C90.4649 143.005 86.7573 133.088 86.7573 121.187C86.7573 109.106 90.6503 99.1893 98.4363 91.436C106.222 83.5023 116.233 79.7158 128.283 79.7158C140.518 79.7158 150.343 83.6826 157.944 91.436C165.73 99.3696 169.437 109.287 169.437 121.187C169.437 133.448 165.544 143.365 157.944 150.938C150.158 158.692 140.147 162.658 128.097 162.658C116.048 162.658 105.852 158.692 98.2509 150.938ZM128.283 152.922C137.181 152.922 144.225 149.856 149.972 144.086C155.534 138.317 158.314 130.563 158.314 121.187C158.314 111.811 155.534 104.058 149.972 98.2877C144.411 92.3375 137.181 89.2722 128.283 89.2722C119.384 89.2722 112.34 92.3375 106.593 98.2877C100.846 104.238 98.2509 111.991 98.2509 121.187C98.2509 130.563 101.032 138.136 106.593 144.086C112.34 150.037 119.384 152.922 128.283 152.922Z" fill="#282A2C"/>
<path d="M210.215 96.8453C217.816 85.4857 227.827 79.7158 240.247 79.7158C252.853 79.7158 262.308 83.6826 268.796 91.436C275.284 99.3696 278.621 109.106 278.621 121.007C278.621 133.088 275.284 143.005 268.61 150.758C261.937 158.692 252.668 162.658 240.618 162.658C228.568 162.658 218.743 158.692 211.142 150.578V203.949C211.142 205.211 210.586 206.654 209.474 207.555C208.362 208.457 206.879 208.818 205.396 208.818C203.913 208.818 202.429 208.457 201.317 207.555C200.205 206.654 199.649 205.572 199.649 203.949V95.5831C199.649 92.8784 198.351 91.6163 195.57 91.6163H185.374C183.891 91.6163 182.594 91.2556 181.667 90.3541C180.74 89.4525 180.369 88.3707 180.369 86.7479C180.369 85.4857 180.74 84.0432 181.667 83.1417C182.594 82.2401 183.706 81.6992 185.374 81.6992H197.053C206.137 81.6992 210.586 86.5676 210.215 96.8453ZM211.142 140.3C220.411 148.774 229.68 152.922 238.95 152.922C248.219 152.922 255.078 149.856 259.898 144.086C264.717 138.317 267.313 130.383 267.313 120.646C267.313 110.909 265.088 103.336 260.083 97.7468C255.078 92.1572 248.775 89.2722 240.433 89.2722C228.012 89.2722 218.372 95.9437 211.142 109.287V140.3Z" fill="#282A2C"/>
<path d="M321.07 150.576H329.597C330.895 150.576 332.378 151.117 333.305 152.019C334.232 152.92 334.602 154.182 334.602 155.625C334.602 157.067 334.232 158.329 333.305 159.231C332.378 160.132 331.266 160.493 329.597 160.493H321.07C309.391 160.493 303.458 155.985 303.458 146.79V12.2784H289.184C287.886 12.2784 286.403 11.9178 285.476 11.0162C284.549 10.1147 284.179 9.0328 284.179 7.41001C284.179 6.14784 284.549 4.70536 285.476 3.80381C286.403 2.90226 287.516 2.36133 289.184 2.36133H309.205C310.688 2.36133 312.171 2.90226 313.284 3.80381C314.396 4.70536 314.952 5.96753 314.952 7.41001V146.429C315.323 149.314 317.177 150.576 321.07 150.576Z" fill="#282A2C"/>
</svg>
